<?xml version="1.0" encoding="utf-8"?>
<!-- Generator: Adobe Illustrator 21.1.0, SVG Export Plug-In . SVG Version: 6.00 Build 0)  -->
<svg version="1.1" id="Layer_1" xmlns="http://www.w3.org/2000/svg" xmlns:xlink="http://www.w3.org/1999/xlink" x="0px" y="0px"
	 viewBox="0 0 49 55" width="49" height="55" xml:space="preserve">
	<linearGradient id="lgrad" x1="100%" y1="100%" x2="0%" y2="0%" >
<stop offset="0%" style="stop-color:rgb(66,183,94);stop-opacity:1" />
<stop offset="100%" style="stop-color:rgb(150,203,69);stop-opacity:1" />
</linearGradient>
	<path fill="url(#lgrad)" d="M19.5,0h10c2.5,0.1,5.1,0.6,7.4,1.6c4,1.7,7.4,4.6,9.6,8.4c1.4,2.5,2.2,5.4,2.4,8.3v9.5
		c-0.2,4.3-1.3,8.6-3.5,12.3c-1.6,2.9-3.8,5.5-6.4,7.6c-2.8,2.3-6,4-9.3,5.2c-2.4,0.9-4.9,1.6-7.4,2.1h-0.1c-0.2,0-0.5-0.1-0.5-0.4
		c0.1-0.3,0.3-0.6,0.5-0.8c0.6-0.7,1.3-1.3,1.9-1.9c1.7-1.7,3.2-3.7,4-6c-1.8,0-7.8,0-8.9,0c-2.7-0.2-5.3-0.8-7.7-2
		c-4-1.9-7.4-5.1-9.3-9.1c-1-2.2-1.6-4.5-1.8-6.9c0-0.2,0-10.4,0.1-11c0.2-1.5,0.5-2.9,1.1-4.3c1-2.7,2.7-5.1,4.8-7.1
		c2-1.9,4.4-3.3,6.9-4.2C15.2,0.5,17.3,0.1,19.5,0 M9.8,15.2c0,1.4,0,2.9,0,4.3c10.3,0,20.6,0,30.8,0c0-1.5,0-2.9,0-4.4
		c-0.7,0-1.4,0-2.1,0c-8.2,0-16.5,0-24.7,0C12.5,15.2,11.2,15.2,9.8,15.2 M9.8,25.8c0,1.5,0,2.9,0,4.4c6.6,0,13.2,0,19.8,0
		c0-1.5,0-2.9,0-4.4C23,25.8,16.4,25.8,9.8,25.8z"/>
</svg>
